<svg xmlns="http://www.w3.org/2000/svg" viewBox="0 0 182.76 181.25"><defs><style>.cls-1{fill:#241b1a;}.cls-2{fill:#2a1e1d;}.cls-3{fill:#212125;}.cls-4{fill:#39220f;}.cls-5{fill:#121211;}.cls-6{fill:#f93703;}.cls-7{fill:#eb262c;}.cls-8{fill:#e22a2e;}.cls-9{fill:#f0360b;}</style></defs><title>Layer 4</title><g id="Layer_2" data-name="Layer 2"><g id="Layer_4" data-name="Layer 4"><path class="cls-1" d="M6.82,88.91c2.17-5.56,4.4-11.09,6.49-16.68,3.31-8.85,6.61-10.94,16.06-11.57,16-1.07,32-2.57,48-3.89,3,3.69,5.46.58,8.08-.59l9.09-.83c3.94,3.48,8.71.79,13,1.72-1.76,3-4.75,1.53-7.22,2-1.74.3-4.25-1.09-4.79,2.05v0c-4.1-.33-8.18,0-12.32-.69-3.16-.5-7.14-.78-9.71,2.53-2.79,0-5.64.39-8.37,0C57.4,61.67,50,63,42.53,64.8c-1.81.11-3.62.24-5.44.33A27.56,27.56,0,0,0,23.36,69H21.51c-4,.24-4,.24-4,6l-.76,2.31.05-.14c-1.71.61-1.2,2-1.12,3.23a32.54,32.54,0,0,1-3.07,7.14C7.52,96.79,2.4,106.22,9.45,116.73c2.22,3.32,1.87,8.12,6,10.29.2,1,.65,1.92,1.86,1.92q6.2,0,12.38,0c1.22,0,1.62-.92,1.76-2,1.06-1.1,2.46-.7,3.74-.88C46,124.59,57,125.71,67.81,124c8-1.29,16.12-.91,24-2.83l3.68.24c3.06,3.37,7.05.8,10.51,1.64,1.86.46,4.42-1.28,5.47,1.74-20.35,1.88-40.28,7.44-61,6.48a224.34,224.34,0,0,0-37.89,1.43c-2.19.27-3.47-.45-4.17-2.52-2.67-7.85-5.51-15.65-8-23.55-1-3.14-.16-6.22,1.89-9,1.48-2,3.09-3.94,3.5-6.53C6.15,90.38,6.48,89.64,6.82,88.91Zm65.37,37.34c2.24.32,4.61,1.68,7.26-.57C76.6,124.8,74.37,124.72,72.19,126.25Zm17.48-69.2-.23.64a3.45,3.45,0,0,0,1.28.28c.55-.11,1.64.57,1.48-.66C92.18,57.12,90.55,57.13,89.67,57.05Z"/><path class="cls-2" d="M66.18,24.86c7.21-7.11,14.38-14.23,20.57-22.29C89.15-.55,100.81-.82,105,1.72c11.23,6.8,15.19,23,6.2,32.3C104.69,40.76,98,48,89.07,52.22L72.51,51a2,2,0,0,1-.91-2.14C79.67,49.94,87,48.79,92.49,42a9.52,9.52,0,0,0,5.41-4.79c.67-.72-.05-1.09-.39-1.55-.13-1.92.82-2.69,2.69-2.64,1.48,0,3.15.18,3.21-2.07v0c1.56-.32,4.68,2,3.92-2.3,6.22-7.94,5-14.77-3.67-21.12C96.86,4.12,89.46,7.14,85.14,14l-1.69,1c-2.73.42-1.65,2.73-2.12,4.27C77.68,18,77,22.15,74.52,23c-3-.24-5.72-.26-5,4h0L67.46,27A2.12,2.12,0,0,0,66.18,24.86Z"/><path class="cls-1" d="M106.51,54.19c19.14-2.12,38.32-3.72,57.56-4.5,7.5-.3,9.71,1.24,11.61,8.67,2.08,8.16,3.78,16.43,5.65,24.65-2.59-.37-3.15-3.67-5.78-4-2.16-6.69-3.18-13.76-6.41-20.06-.75-1.46-.64-4.29-3.65-3.76-2,.25-4.16-.73-6,.84l0,0c-2.08.24-4.26-.27-6.21.86l-9.78.27-11.85-.07L111.47,57C111.19,53.67,107.68,56,106.51,54.19Z"/><path class="cls-3" d="M111.51,128.23c12.86-2.21,21.89,7.63,18.32,20.53-3.81,13.73-14,22.23-25.78,29.06-1,.6-2.25,1-3.38,1.66-6.85,3.71-13.69,1.47-17-5.59-1.91-4-3.6-8.22-3.37-12.86,2.82-.35,3.3,1.24,3.26,3.61,0,1.64-.85,3.86,1.89,4.41.67,5,3.8,7.91,8.6,8,7.17.11,14.7-4.63,15.54-9.76a2.41,2.41,0,0,0,2.11-2.07c4.09-.78,8.8-5.07,7.36-7-1.83-2.46.52-3.53.44-5.22,6.14-2.35,6.66-7.31,6-12.83,0-7.09-.91-8-7.36-9.31C115.86,130.37,113,130.8,111.51,128.23Z"/><path class="cls-2" d="M85.43,169.05c-2.74-.55-1.91-2.77-1.89-4.41,0-2.37-.44-4-3.26-3.61-.75-3.34.22-6.06,2.4-8.72a99.47,99.47,0,0,1,22.84-20.14c.37,2.32,2.26,2.5,4,2.88a7.88,7.88,0,0,1-4,4c-2.91-.2-1.15,3.79-3.59,4-1.89-1.08-3.36-1.79-4.57,1.16a14.33,14.33,0,0,1-4.51,6.22c-5.43,3.79-8,8.59-7.07,15.16Z"/><path class="cls-1" d="M159.61,118.39c-13.15,3.41-26.59,4.8-40.11,5.57.17-2.48-1.23-3-3.4-3-3.62.07-7.24-.06-10.86-.1l14.24-2.15c4.73.19,9.11-2.31,13.88-1.8,5.45,0,10.9.06,16.35,0,1.58,0,3.49.42,3.75-2.06l.34-.15.36.06,5.32.16C159.53,116.14,159.57,117.27,159.61,118.39Z"/><path class="cls-2" d="M175.55,79c2.63.32,3.19,3.62,5.78,4,3,9.58,1.42,14.43-6.73,20.06-2.76-.77-4.84.9-7.09,2l-.36-1.65c.62-1.6,2.41-2,3.38-3.43,1.94-2.92,0-2.64-1.75-2.82-2.44.44-5.44-1.64-7.27,1.59l-2,.1,0-3.72-.09-.29c2.94.19,5.8,0,8.36-1.67l3.7-.16c6.48,0,7.06-.83,5-6.78-.26-.77-.6-1.52-.9-2.28Z"/><path class="cls-3" d="M66.18,24.86A2.12,2.12,0,0,1,67.46,27c-4.44,4.71-5,8.48-2.8,12.39,1.19,2.12,2.53,5.26-2.1,5.67C58,36.34,58.93,31.35,66.18,24.86Z"/><path class="cls-1" d="M109.54,135.05c-1.76-.38-3.65-.56-4-2.88a15.43,15.43,0,0,1,6-3.94c1.49,2.57,4.35,2.14,6.57,2.6,6.45,1.32,7.38,2.22,7.36,9.31C120.34,132.62,116.71,131.46,109.54,135.05Z"/><path class="cls-4" d="M62.56,45c4.63-.41,3.29-3.55,2.1-5.67C62.48,35.45,63,31.68,67.46,27l2.09.1c-2.82,4.33-5.66,8.65-2.1,13.94l0,0c-.43,2.37,2,3.73,2.08,5.92-.51,2.48-4.17-1.2-4.24,2.17A6.89,6.89,0,0,1,62.56,45Z"/><path class="cls-3" d="M105.24,120.9c3.62,0,7.24.17,10.86.1,2.17,0,3.57.48,3.4,3-2.66.44-5.28,1.23-8,.8-1-3-3.61-1.28-5.47-1.74-3.46-.84-7.45,1.73-10.51-1.64Z"/><path class="cls-3" d="M167.51,105c2.25-1.06,4.33-2.73,7.09-2-5.71,4.41-8.84,11.34-15,15.32,0-1.12-.08-2.25-.13-3.38.67-3.35,4.78-3.22,6-6a1.82,1.82,0,0,0,2-2Z"/><path class="cls-5" d="M65.32,49.14c.07-3.37,3.73.31,4.24-2.17a3.07,3.07,0,0,1,2,1.9A2,2,0,0,0,72.51,51c1,2.06,3,2.62,5,3l-.11,2.24C72.47,55.42,68.09,53.63,65.32,49.14Z"/><path class="cls-1" d="M77.5,54c-2-.39-4-1-5-3l16.56,1.21A4.69,4.69,0,0,1,85.27,54a1.18,1.18,0,0,0-.49.16c-1.2,1.15-2.78.76-4.19,1.06C79.9,53.93,78.68,54,77.5,54Z"/><path class="cls-2" d="M106.51,54.19c1.17,1.8,4.68-.52,5,2.83l-3.93,0c-4.28-.93-9.05,1.76-13-1.72Z"/><path class="cls-2" d="M77.5,54c1.18,0,2.4-.09,3.09,1.19,1.32,1.84,3.29.43,4.87,1-2.62,1.17-5.1,4.28-8.08.59a.88.88,0,0,1,0-.51C77.43,55.51,77.47,54.77,77.5,54Z"/><path class="cls-2" d="M84.78,54.15a1.18,1.18,0,0,1,.49-.16l-.2.28Z"/><path class="cls-6" d="M171.48,93l-3.7.16c-3.73.51-5.46-2.4-7.53-5-1.27,2.43-.53,4.58-.83,6.63l.09.29c-5.44-.12-10.84.07-16,1.89l-6,.28c-3.27.19-6.73-1.06-9.74,1.22-9,.58-17.94,1.21-26.91,1.75q-26.64,1.61-53.29,3.13l-16-.18c-1.21-1.72-1.37-4.12-3.45-5.26C25.59,88.43,22.42,79,23.36,69a27.56,27.56,0,0,1,13.73-3.87c1.82-.09,3.63-.22,5.44-.33l33.76-.22c1.34,0,2.7.08,3.32-1.51a50.74,50.74,0,0,0,7.31-.26c2.87-.51,6.23,1.17,8.6-1.75v0c8.09.51,15.83-2.86,23.94-2.1l24,0c.15,1.43,1.09,1.7,2.36,2,4.28,1.12,8.49,2.51,13,2.79-3.64,1.71-7.39.9-11,1.19-1.66.14-3.88-.79-4.38,2h-35.3l0,2c5.34,0,10.69-.15,16,0,3.4.13,6,1.28,4,5.57-.69,1.5-1.61,3.57.71,4.1,2.14.48,4.06,4.13,6.53,1.13,2-2.39,3.93-2.13,6.25-1l-.17.18.14-.21c1.61,4.34,5,2.31,7.26,1.42s3.61-3.17,1-5.89c-2.14-2.22-1-3.41,1.89-3.34,3.29.07,6.6.06,9.9,0,1.55,0,3.72.48,3.61-2.09S163,67.25,161.48,67c-.52-2,1.39-5.44-1.84-5.77-5.42-.55-10.51-3.47-16.15-2.24V57.2l9.78-.27c2.09-.14,4.34.9,6.21-.86l0,0c2.25,1.56,4.59,3.8,6-.84,3-.53,2.9,2.3,3.65,3.76,3.23,6.3,4.25,13.37,6.41,20.06,0,1.63,0,3.26,0,4.9-.32,2.22.66,5-3.09,5.57C171.13,89.7,171.61,91.72,171.48,93Zm-44,0H112.14l0,1.63c4.61.74,9.29.34,14,.2.9,0,1.22-1,1.37-1.83,1.8-.25,3.82.57,5.3-1.29C130.9,91.56,128.62,89.43,127.48,93Zm23.06-4.37c-2.6-2.75-7.84-.09-8.12-5.52-.49,2.94-2.5,3.91-4.21,5.52ZM80.2,95.51v1H94.78v-1ZM158.79,86c-2.24-1.13-4.47-1.36-7.62,0C154.34,87.38,156.56,87.2,158.79,86Zm.6-11.06c-.11-.63-.31-1.62-1-1.3a5.86,5.86,0,0,0-2.4,2.2c-.32.54.53,1,1.23,1.08C158.61,77,159.38,76.38,159.39,74.94Z"/><path class="cls-7" d="M105.24,120.9l-9.75.48-3.68-.24c-10,.33-20-.41-30.16,1.45-9.31,1.69-19.19.31-28.82.23-.26,0-.51-.67-1.49-2,9.31,1.42,17.26-1.41,25.52-2.79-1.71-1.33-3.67-.85-5.52-1-1.57-.12-3.51.47-3.85-2,3.1-.24,6.32.49,9.35-.48l0-1.53H47.49c0-1.62-.22-2.85-2.28-3.06-1.62-.16-3.28-.64-3.72-2.64,4.48-.08,9-.18,13.44-.24,10.91-.16,21.86.23,32.65-2l13.85-.08c3.25.44,6.76-1,9.75.84,4,2.41,6.45,1.16,8.31-2.61l2.06-.4,5.84.12c4.26-.36,7.82,3.16,12.28,2.13,3.05-.71,4.16,1.06,3.81,3.94-4.71,1.29-8.7-2.35-13.27-2-1.18.1-3.09-.65-3.21,1.22s1.32,2.8,3.3,2.76c3.46,0,6.91,0,10.36,0,1.46,0,2.63-.28,2.83-2,1.89-.31,4.89,1,5.48-1,1.16-3.95,4.09-3.43,6.31-2.81,2.92.81,4.69-3.43,7.83-1.36-3.47,5.51-8.75,7.83-14.29,9.06A85.74,85.74,0,0,1,123.16,115c-2.89-.23-4,1-3.68,3.76Zm6.24-5.89c-8.81,0-17.63.36-26.42-.12-6-.33-11.77-2.76-17.91-1.88-1.4.2-3.33-.41-3.47,1.8-.16,2.64,2,2.18,3.56,2.18,13.62,0,27.25,0,40.88,0,1.52,0,3.11.13,3.37-2,1-.17,2.49.4,2.56-1.33a1.76,1.76,0,0,0-1.24-1.24C111.08,112.52,111.65,114,111.48,115Zm-.71-4.43v-1H80.19v1Z"/><path class="cls-8" d="M41.49,107.31c.44,2,2.1,2.48,3.72,2.64,2.06.21,2.33,1.44,2.28,3.06h0c-2.45.21-5-.52-8.38,1,3.35,1.51,5.93.79,8.38,1h0c.34,2.47,2.28,1.88,3.85,2,1.85.13,3.81-.35,5.52,1-8.26,1.38-16.21,4.21-25.52,2.79,1,1.36,1.23,2,1.49,2,9.63.08,19.51,1.46,28.82-.23,10.15-1.86,20.11-1.12,30.16-1.45-7.88,1.92-16,1.54-24,2.83C57,125.71,46,124.59,35.2,126.06c-1.28.18-2.68-.22-3.74.88l-16,.08c-4.14-2.17-3.79-7-6-10.29-7-10.51-1.93-19.94,3.14-29.18a32.54,32.54,0,0,0,3.07-7.14,3.63,3.63,0,0,0,1.12-3.23l-.05.14C21,79,21.6,83.48,21.9,86.68A47.28,47.28,0,0,0,25.46,102l.16,1.06c0,1.32,0,2.67,1.86,2.79l2.73,2.37,1.29,1.09c1.9,3.1,4.83,2,7.1,1.14,1.13-.43-.56-1.21-1.35-1.52C38.5,107.91,39.78,107.05,41.49,107.31Z"/><path class="cls-4" d="M25.46,102A47.28,47.28,0,0,1,21.9,86.68c-.3-3.2-.86-7.72-5.17-9.36.25-.77.51-1.54.76-2.31,2.71-1.09,2.54-4.1,4-6h1.85C22.42,79,25.59,88.43,28,97.93,23,96.61,26.63,100.81,25.46,102Z"/><path class="cls-4" d="M79.61,63.07c-.62,1.59-2,1.51-3.32,1.51l-33.76.22C50,63,57.4,61.67,65.12,62.87c2.73.42,5.58,0,8.37,0Z"/><path class="cls-4" d="M119.47,59c-8.11-.76-15.85,2.61-23.94,2.1.54-3.14,3-1.75,4.79-2.05,2.47-.44,5.46,1.08,7.22-2l3.93,0,20.18.11Z"/><path class="cls-2" d="M79.61,63.07l-6.12-.17c2.57-3.31,6.55-3,9.71-2.53,4.14.65,8.22.36,12.32.69-2.37,2.92-5.73,1.24-8.6,1.75A50.74,50.74,0,0,1,79.61,63.07Z"/><path class="cls-5" d="M15.46,127l16-.08c-.14,1.07-.54,2-1.76,2q-6.19.06-12.38,0C16.11,128.94,15.66,128.07,15.46,127Z"/><path class="cls-5" d="M21.51,69c-1.48,1.91-1.31,4.92-4,6C17.48,69.24,17.48,69.24,21.51,69Z"/><path class="cls-5" d="M72.19,126.25c2.18-1.53,4.41-1.45,7.26-.57C76.8,127.93,74.43,126.57,72.19,126.25Z"/><path class="cls-2" d="M89.67,57.05c.88.08,2.51.07,2.53.26.16,1.23-.93.55-1.48.66a3.45,3.45,0,0,1-1.28-.28Z"/><path class="cls-4" d="M16.78,77.18a3.63,3.63,0,0,1-1.12,3.23C15.58,79.18,15.07,77.79,16.78,77.18Z"/><path class="cls-8" d="M71.6,48.87a3.07,3.07,0,0,0-2-1.9c-.06-2.19-2.51-3.55-2.08-5.92,1.79-.45,5.43.62,5.13-1-.62-3.42,1.31-5.3,2.46-7.78.65-1.4-.14-2.4-1.63-2-1.77.48-4.32.6-3.9,3.43s-.91,5-2.09,7.3c-3.56-5.29-.72-9.61,2.1-13.94h0c2.24-.63,3.55-2.41,5-4,2.48-.89,3.16-5,6.81-3.8l.3,3.72c.17,6.29,3.8,10.76,9.85,12.13l.31.15.34,0c1.7,1.32,3.54.9,5.38.42.34.46,1.06.83.39,1.55-6.86-.29-7.13,0-5.41,4.79C87,48.79,79.67,49.94,71.6,48.87Z"/><path class="cls-6" d="M85.14,14c4.32-6.85,11.72-9.87,18.53-6.46-.76,2.41,1.09,3.59,2.33,5.1,4.17,5.07,4.57,7.76,1.31,12.28a9.9,9.9,0,0,1-8.4,4.19c-1.87,0-4.53-1.38-5.45,1.83l-2-.2c-.11-1.25-.87-1.73-2-1.69-4.16-1.46-4.84-4.85-4.72-8.63C84.79,18.27,85,16.13,85.14,14Zm12.35,9c-.14-.71-.11-1.57-1.2-1.5a.44.44,0,0,0-.31.31c-.07,1.09.78,1.07,1.5,1.2.16,1.65,1.12,2.18,2.62,1.79.32-.08.81-.75.73-.91C100.08,22.41,98.63,23.26,97.49,23Z"/><path class="cls-4" d="M85.14,14c-.14,2.14-.35,4.28-.41,6.42-.12,3.78.56,7.17,4.72,8.63.2,1.14.73,1.9,2,1.69l2,.2c3.32,1.69,6.64-.07,10,0-.06,2.25-1.73,2.11-3.21,2.07-1.87,0-2.82.72-2.69,2.64-1.84.48-3.68.9-5.38-.42,1.2-.5,3.12.41,3.56-1.88-1.88-.38-3.73-1-4.21,1.75-6-1.37-9.68-5.84-9.85-12.13,3.59-2,1-5.37,1.82-8Z"/><path class="cls-9" d="M103.41,30.93c-3.31-.07-6.63,1.69-10,0,.92-3.21,3.58-1.82,5.45-1.83a9.9,9.9,0,0,0,8.4-4.19c3.26-4.52,2.86-7.21-1.31-12.28-1.24-1.51-3.09-2.69-2.33-5.1,8.71,6.35,9.89,13.18,3.67,21.12a5.66,5.66,0,0,0-3.92,2.3Z"/><path class="cls-7" d="M92.49,42C90.77,37.14,91,36.9,97.9,37.19A9.52,9.52,0,0,1,92.49,42Z"/><path class="cls-5" d="M83.45,15c-.81,2.62,1.77,6-1.82,8l-.3-3.72C81.8,17.7,80.72,15.39,83.45,15Z"/><path class="cls-4" d="M74.52,23c-1.44,1.63-2.75,3.41-5,4C68.8,22.78,71.57,22.8,74.52,23Z"/><path class="cls-4" d="M103.42,31a5.66,5.66,0,0,1,3.92-2.3C108.1,33,105,30.63,103.42,31Z"/><path class="cls-9" d="M119.47,59l12.18-1.86,11.85.07c0,.6,0,1.21,0,1.81h0Z"/><path class="cls-9" d="M165.49,55.2c-1.38,4.64-3.72,2.4-6,.84C161.33,54.47,163.5,55.45,165.49,55.2Z"/><path class="cls-9" d="M159.49,56.07c-1.87,1.76-4.12.72-6.21.86C155.23,55.8,157.41,56.31,159.49,56.07Z"/><path class="cls-9" d="M109.54,135.05c7.17-3.59,10.8-2.43,15.9,5.09.7,5.52.18,10.48-6,12.83-2.69-1.25-5.1,1.75-8.28-.08-5.82-3.35-6.23-8.26-5.7-13.86A7.88,7.88,0,0,0,109.54,135.05Z"/><path class="cls-4" d="M105.5,139c-.53,5.6-.12,10.51,5.7,13.86,3.18,1.83,5.59-1.17,8.28.08.08,1.69-2.27,2.76-.44,5.22,1.44,1.93-3.27,6.22-7.36,7l-.18-.16,1.29-1.49c3.64-4.31,3.64-4.31-1.48-6.56-7.56-3.33-9.76-6.59-9.4-13.94C104.35,142.82,102.59,138.83,105.5,139Z"/><path class="cls-1" d="M85.43,169.05l.33-3.47c2.29,4.42,3.69,10.24,10.42,9.11a15.37,15.37,0,0,0,9.5-5.46,2.1,2.1,0,0,0,2.1-2l1.71-.22.08.21c-.84,5.13-8.37,9.87-15.54,9.76C89.23,177,86.1,174.06,85.43,169.05Z"/><path class="cls-4" d="M111.68,165.19a2.41,2.41,0,0,1-2.11,2.07l-.08-.21,2-2Z"/><path class="cls-8" d="M111.5,165l-2,2-1.71.22-.36-.31c-.29-.55-.47-1.47-.89-1.6-2.36-.72-4.42.55-6.5,1.37-.21.08-.35,1.06-.15,1.3,1.55,1.84,3.66.68,5.53.9l.27.3a15.37,15.37,0,0,1-9.5,5.46c-6.73,1.13-8.13-4.69-10.42-9.11-.89-6.57,1.64-11.37,7.07-15.16a14.33,14.33,0,0,0,4.51-6.22c1.21-2.95,2.68-2.24,4.57-1.16-.36,7.35,1.84,10.61,9.4,13.94,5.12,2.25,5.12,2.25,1.48,6.56Z"/><path class="cls-8" d="M119.48,118.75c-.32-2.76.79-4,3.68-3.76a85.74,85.74,0,0,0,25.66-2.11c5.54-1.23,10.82-3.55,14.29-9.06-3.14-2.07-4.91,2.17-7.83,1.36-2.22-.62-5.15-1.14-6.31,2.81-.59,2-3.59.72-5.48,1h0c.35-2.88-.76-4.65-3.81-3.94-4.46,1-8-2.49-12.28-2.13,2.5-1.75,5.75-.13,8.25-1.84l4.87-.22c3.84.25,7.6,0,11.13-1.73l3.84-.24,0,.37c3.61,3.45,7.56,1.21,12,1.51-1.37-2.3-2.87-1.52-4-1.85l5.42-1.81c1.78.18,3.69-.1,1.75,2.82-1,1.47-2.76,1.83-3.38,3.43-4.59,3.53-7.13,9.39-13,11.47l-.36-.06-.34.15c-6.74.23-13.5.3-20.1,2C128.59,116.44,124.21,118.94,119.48,118.75Z"/><path class="cls-4" d="M154.16,114.85c5.86-2.08,8.4-7.94,13-11.47l.36,1.65c0,.66,0,1.32,0,2a1.81,1.81,0,0,0-2,2c-1.25,2.76-5.36,2.63-6,6Z"/><path class="cls-4" d="M133.36,117c6.6-1.71,13.36-1.78,20.1-2-.26,2.48-2.17,2-3.75,2.06C144.26,117,138.81,117,133.36,117Z"/><path class="cls-4" d="M143.46,97c5.21-1.82,10.61-2,16-1.89l0,3.72-4,.46,0-.37c-3.75-2.1-7.8-2-11.89-1.62Z"/><path class="cls-8" d="M171.48,93c.13-1.26-.35-3.28,1-3.49,3.75-.59,2.77-3.35,3.09-5.57.3.76.64,1.51.9,2.28C178.54,92.15,178,92.93,171.48,93Z"/><path class="cls-9" d="M159.42,94.81c.3-2-.44-4.2.83-6.63,2.07,2.56,3.8,5.47,7.53,5C165.22,94.83,162.36,95,159.42,94.81Z"/><path class="cls-7" d="M155.45,99.28l4-.46,2-.1,1.85.22c1.17.33,2.67-.45,4,1.85C163,100.49,159.06,102.73,155.45,99.28Z"/><path class="cls-4" d="M163.36,98.94l-1.85-.22c1.83-3.23,4.83-1.15,7.27-1.59Z"/><path class="cls-2" d="M165.51,109a1.81,1.81,0,0,1,2-2A1.82,1.82,0,0,1,165.51,109Z"/><path class="cls-9" d="M141.71,78.84c-2.32-1.1-4.29-1.36-6.25,1-2.47,3-4.39-.65-6.53-1.13-2.32-.53-1.4-2.6-.71-4.1,2-4.29-.64-5.44-4-5.57-5.33-.2-10.68,0-16,0l0-2h35.31c.16,1.07.63,1.92,1.84,1.92q7.15,0,14.32,0c1.21,0,1.66-.88,1.83-1.93,1.49.23,3.72-.67,3.83,1.88S163.25,71,161.7,71c-3.3.07-6.61.08-9.9,0-2.89-.07-4,1.12-1.89,3.34,2.64,2.72,1.34,5-1,5.89s-5.65,2.92-7.26-1.42l1.46.15a2.48,2.48,0,0,0,3.08-2.34,1.17,1.17,0,0,0-1.07-1.39c-1.65-.18-2.9.34-3.25,2.15C141.81,77.86,141.77,78.35,141.71,78.84Z"/><path class="cls-1" d="M140.51,100.88l-4.87.22c-4.71.41-9.72-1.57-14.09,1.72l-2.06.4c-6.1-.27-12.07.81-18.06,1.77l-13.85.08c-1.94-.34-3.77-1.39-5.82-1-10,2-20.09.53-30.14.91-1.51.06-3.47.73-4.12-1.62q26.64-1.56,53.29-3.13c9-.54,17.94-1.17,26.91-1.75,3.39.79,6.75,1.26,9.74-1.22l6-.28.13.3L143.47,99A3.19,3.19,0,0,0,140.51,100.88Z"/><path class="cls-4" d="M47.5,103.37c.65,2.35,2.61,1.68,4.12,1.62,10.05-.38,20.15,1,30.14-.91,2-.4,3.88.65,5.82,1-10.79,2.23-21.74,1.84-32.65,2-4.48.06-9,.16-13.44.24-1.71-.26-3,.6-4.24,1.58l-5.75.38-1.29-1.09c2-1.27,1.06-3.27,1.26-5Zm-13.27,1c3,.69,4.58.78,6.41.18C38.91,103.71,37.35,104.09,34.23,104.42Z"/><path class="cls-9" d="M143.49,59c5.64-1.23,10.73,1.69,16.15,2.24,3.23.33,1.32,3.76,1.84,5.77h-18c.5-2.77,2.72-1.84,4.38-2,3.64-.29,7.39.52,11-1.19-4.56-.28-8.77-1.67-13-2.79-1.27-.33-2.21-.6-2.36-2Z"/><path class="cls-2" d="M31.47,103.19c-.2,1.72.73,3.72-1.26,5l-2.73-2.37c0-1.36,0-2.68-1.86-2.79L25.46,102c1.17-1.15-2.49-5.35,2.56-4C30.1,99.07,30.26,101.47,31.47,103.19Z"/><path class="cls-9" d="M150.54,88.65H138.21c1.71-1.61,3.72-2.58,4.21-5.52C142.7,88.56,147.94,85.9,150.54,88.65Z"/><path class="cls-9" d="M127.49,93c-.15.85-.47,1.81-1.37,1.83-4.66.14-9.34.54-14-.2l0-1.63h15.35Z"/><path class="cls-9" d="M80.2,95.51H94.78v1H80.21Z"/><path class="cls-4" d="M137.44,97.27c-3,2.48-6.35,2-9.74,1.22C130.71,96.21,134.17,97.46,137.44,97.27Z"/><path class="cls-9" d="M158.79,86c-2.23,1.2-4.45,1.38-7.62,0C154.32,84.64,156.55,84.87,158.79,86Z"/><path class="cls-9" d="M159.39,74.94c0,1.44-.78,2-2.16,2-.7,0-1.55-.54-1.23-1.08a5.86,5.86,0,0,1,2.4-2.2C159.08,73.32,159.28,74.31,159.39,74.94Z"/><path class="cls-9" d="M127.48,93c1.14-3.59,3.42-1.46,5.31-1.29-1.48,1.86-3.5,1-5.3,1.29Z"/><path class="cls-8" d="M111.49,115c-.26,2.12-1.85,2-3.37,2-13.63,0-27.26,0-40.88,0-1.56,0-3.72.46-3.56-2.18.14-2.21,2.07-1.6,3.47-1.8,6.14-.88,11.94,1.55,17.91,1.88,8.79.48,17.61.12,26.42.12Z"/><path class="cls-8" d="M110.77,110.58H80.2v-1h30.57Z"/><path class="cls-8" d="M143.49,109c-.2,1.72-1.37,2-2.83,2-3.45,0-6.9,0-10.36,0-2,0-3.42-.87-3.3-2.76s2-1.12,3.21-1.22c4.57-.38,8.56,3.26,13.27,2Z"/><path class="cls-8" d="M101.43,105c6-1,12-2,18.06-1.77-1.86,3.77-4.34,5-8.31,2.61C108.19,104,104.68,105.43,101.43,105Z"/><path class="cls-8" d="M47.49,113h9.37l0,1.53c-3,1-6.25.24-9.35.48h0v-2Z"/><path class="cls-4" d="M121.55,102.82c4.37-3.29,9.38-1.31,14.09-1.72-2.5,1.71-5.75.09-8.25,1.84Z"/><path class="cls-8" d="M111.48,115c.17-1-.4-2.49,1.33-2.56a1.76,1.76,0,0,1,1.24,1.24c-.07,1.73-1.55,1.16-2.56,1.33Z"/><path class="cls-7" d="M31.5,109.27l5.75-.38c.79.31,2.48,1.09,1.35,1.52C36.33,111.29,33.4,112.37,31.5,109.27Z"/><path class="cls-7" d="M47.48,113v2c-2.45-.21-5,.51-8.38-1C42.45,112.5,45,113.23,47.48,113Z"/><path class="cls-4" d="M25.62,103c1.85.11,1.89,1.43,1.86,2.79C25.65,105.69,25.66,104.34,25.62,103Z"/><path class="cls-7" d="M67.45,41c1.18-2.29,2.5-4.47,2.09-7.3s2.13-2.95,3.9-3.43c1.49-.41,2.28.59,1.63,2-1.15,2.48-3.08,4.36-2.46,7.78.3,1.62-3.34.55-5.13,1Z"/><path class="cls-2" d="M91.48,35.09C92,32.3,93.81,33,95.69,33.34c-.44,2.29-2.36,1.38-3.56,1.88l-.34,0Z"/><path class="cls-9" d="M97.49,23c1.14.25,2.59-.6,3.34.89.08.16-.41.83-.73.91-1.5.39-2.46-.14-2.62-1.79Z"/><path class="cls-9" d="M97.48,23c-.72-.13-1.57-.11-1.5-1.2a.44.44,0,0,1,.31-.31c1.09-.07,1.06.79,1.2,1.5Z"/><path class="cls-9" d="M91.5,30.73c-1.32.21-1.85-.55-2-1.69C90.63,29,91.39,29.48,91.5,30.73Z"/><path class="cls-8" d="M107.78,167.27a2.1,2.1,0,0,1-2.1,2l-.27-.3a2,2,0,0,1,2-2Z"/><path class="cls-7" d="M107.42,167a2,2,0,0,0-2,2c-1.87-.22-4,.94-5.53-.9-.2-.24-.06-1.22.15-1.3,2.08-.82,4.14-2.09,6.5-1.37C107,165.49,107.13,166.41,107.42,167Z"/><path class="cls-5" d="M143.47,99l.12-1.73c4.09-.39,8.14-.48,11.89,1.62l-3.84.24Z"/><path class="cls-4" d="M143.47,99l8.17.13c-3.53,1.73-7.29,2-11.13,1.73A3.19,3.19,0,0,1,143.47,99Z"/><path class="cls-6" d="M143.49,67h18c-.17,1-.62,1.92-1.83,1.93q-7.17,0-14.32,0C144.12,68.94,143.65,68.09,143.49,67Z"/><path class="cls-4" d="M141.71,78.84c.06-.49.1-1,.19-1.46.35-1.81,1.6-2.33,3.25-2.15a1.17,1.17,0,0,1,1.07,1.39A2.48,2.48,0,0,1,143.14,79l-1.46-.15-.14.21Z"/><path class="cls-2" d="M34.23,104.42c3.12-.33,4.68-.71,6.41.18C38.81,105.2,37.22,105.11,34.23,104.42Z"/></g></g></svg>