<svg xmlns="http://www.w3.org/2000/svg" viewBox="0 0 152.14 80.71"><defs><style>.cls-1{fill:#212125;}.cls-2{fill:#121211;}.cls-3{fill:#d9e8f6;}.cls-4{fill:#b8cbe1;}</style></defs><title>Layer 2</title><g id="Layer_2" data-name="Layer 2"><g id="Layer_2-2" data-name="Layer 2"><path class="cls-1" d="M58.87.16l3,0q2.49,4.35,5,0l9,0c.1.31.17.86.33.89C84.06,2.37,91.89,2.87,99.69.74c.09,0,.12-.3.17-.45a18.78,18.78,0,0,1,7,.09c1.49,2.58,3.21,2.06,5,.38a58.94,58.94,0,0,1,12,.25c.13.72.15,1.67,1.19,1.45.35-.07.54-.93.8-1.43l3,.09c2,3.15,4.09,2.42,6.23.18a13.27,13.27,0,0,1,5.71.28c.17.5-.25,1.32.66,1.38.11,0,.28-.81.41-1.25,3.93-1.2,5.43.72,5.68,4.35.81,12,2.52,23.8,4.34,35.63.83,5.37-.9,10.13-4.24,14.42a198.4,198.4,0,0,1-17.93,20.07c-1.63,1.6-3.36,1.79-5.42,1.82-26.79.41-53.58.8-80.37,1.36-9,.18-17.95.69-26.9,1.32-2.79.2-4.22-.54-5.22-3.16A104.13,104.13,0,0,1,7.12,60.23C5.33,51.1,4,41.87.74,33.1-.77,29,0,25.48,3.45,22.86A35.28,35.28,0,0,0,13.62,10.11c3.21-6.4,8.57-9,15.37-9.22C36.29.63,43.6.5,50.91.31,53.61,2.87,56.27,3,58.87.16Zm-8,73.71,43.85-.3c1.52,2,3,1.87,4.41-.12q11.7-.74,23.39-1.51c1.46-.1,3.08.24,4.27-1,5.59-5.7,11.24-11.35,15.28-18.35,1.67-2.91.53-3.37-2.27-3.15-4.15.32-8.31.35-12.47.48-20.79.63-41.59.79-62.25,3.73C53.54,55.32,42,56.5,30.24,55.83c-4.42-.25-6.1-2.06-6.3-6.25-.23-4.65-.7-9.29-1.27-13.92-.91-7.41-1.41-14.93-4.35-22.4-3.76,3.51-4.74,8.41-8.48,11-4.28,3-4.51,6.68-3.28,11.38,3.06,11.74,5.81,23.56,8.49,35.39.6,2.69,1.75,3.34,4.38,3.26C29.57,74,39.72,74,49.87,73.88,50.21,74.61,50.54,74.64,50.86,73.87ZM62,5.21c-1.08-1.56-2.12-1.92-3.09.1C48,6.34,37,6.38,26.11,7.79c-2.84.36-3.19,1.21-3.3,3.93-.22,5,1.65,9.66,2.12,14.53.68,7.12,1.87,14.19,2.56,21.3.28,2.9,1.18,4,4.25,3.8,7.13-.48,14.3-.45,21.44-.94,30-2.06,60-5.74,90.15-5.2,3.27.06,2.95-1.57,2.85-3.59-.55-11.15-3.16-22-4.06-33.15-.21-2.53-1.65-2.34-3.37-2.38-9.82-.2-19.63-.54-29.44-.68C95.51,5.21,81.7,5.14,67.9,5c-.36-.78-.7-.71-1,0A9.39,9.39,0,0,1,62,5.21ZM85.77,74.89a6.15,6.15,0,0,0-1.48-.67c-.53-.08-1.06.25-.89.82a1.34,1.34,0,0,0,1.06.69C84.81,75.74,85.17,75.3,85.77,74.89Z"/><path class="cls-2" d="M99.86.29c0,.15-.08.42-.17.45C91.89,2.87,84.06,2.37,76.23,1,76.07,1,76,.41,75.9.1Z"/><path class="cls-2" d="M58.87.16c-2.6,2.79-5.26,2.71-8,.15Z"/><path class="cls-2" d="M135.13,1.3c-2.14,2.24-4.24,3-6.23-.18Z"/><path class="cls-2" d="M66.87.12q-2.48,4.36-5,0Z"/><path class="cls-2" d="M111.94.76c-1.82,1.68-3.54,2.2-5-.38Z"/><path class="cls-2" d="M125.88,1c-.26.5-.45,1.36-.8,1.43-1,.22-1.06-.73-1.19-1.45Z"/><path class="cls-2" d="M141.91,1.71c-.13.44-.3,1.26-.41,1.25-.91-.06-.49-.88-.66-1.38Z"/><path class="cls-3" d="M67.9,5c13.8.12,27.61.19,41.41.39,9.81.14,19.62.48,29.44.68,1.72,0,3.16-.15,3.37,2.38.9,11.1,3.51,22,4.06,33.15.1,2,.42,3.65-2.85,3.59-30.18-.54-60.12,3.14-90.15,5.2-7.14.49-14.31.46-21.44.94-3.07.21-4-.9-4.25-3.8-.69-7.11-1.88-14.18-2.56-21.3-.47-4.87-2.34-9.48-2.12-14.53.11-2.72.46-3.57,3.3-3.93C37,6.38,48,6.34,58.92,5.31A3.86,3.86,0,0,0,62,5.21,9.39,9.39,0,0,0,66.86,5Z"/><path class="cls-4" d="M94.71,73.57l-43.85.3h-1c-10.15.12-20.3.14-30.44.43-2.63.08-3.78-.57-4.38-3.26C12.37,59.22,9.62,47.4,6.56,35.66c-1.23-4.7-1-8.39,3.28-11.38,3.74-2.61,4.72-7.51,8.48-11,2.94,7.47,3.44,15,4.35,22.4.57,4.63,1,9.27,1.27,13.92.2,4.19,1.88,6,6.3,6.25,11.72.67,23.3-.51,34.83-2.15,20.66-2.94,41.46-3.1,62.25-3.73,4.16-.13,8.32-.16,12.47-.48,2.8-.22,3.94.24,2.27,3.15-4,7-9.69,12.65-15.28,18.35-1.19,1.21-2.81.87-4.27,1-7.79.53-15.59,1-23.39,1.52Z"/><path class="cls-2" d="M62,5.21a3.86,3.86,0,0,1-3.09.1C59.89,3.29,60.93,3.65,62,5.21Z"/><path class="cls-2" d="M85.77,74.89c-.6.41-1,.85-1.31.84A1.34,1.34,0,0,1,83.4,75c-.17-.57.36-.9.89-.82A6.15,6.15,0,0,1,85.77,74.89Z"/><path class="cls-2" d="M94.71,73.57l4.41-.11C97.7,75.44,96.23,75.54,94.71,73.57Z"/><path class="cls-2" d="M67.9,5l-1,0C67.2,4.31,67.54,4.24,67.9,5Z"/><path class="cls-2" d="M49.87,73.88h1C50.54,74.64,50.21,74.61,49.87,73.88Z"/></g></g></svg>