<svg xmlns="http://www.w3.org/2000/svg" viewBox="0 0 163.09 181.76"><defs><style>.cls-1{fill:#241b1a;}.cls-2{fill:#2a1e1d;}.cls-3{fill:#212125;}.cls-4{fill:#39220f;}.cls-5{fill:#121211;}.cls-6{fill:#f8de07;}.cls-7{fill:#f38b0a;}</style></defs><title>Layer 5</title><g id="Layer_2" data-name="Layer 2"><g id="Layer_5" data-name="Layer 5"><path class="cls-1" d="M153.53,130.85c-3.66,3.23-6.06,7.4-8.55,11.51-.94,1.56-1.76,3.19-2.79,4.69-5.65,8.21-6.7,8.51-15.57,4.07-5.17-2.57-10.26-5.31-15.38-8a30,30,0,0,0-8.57-5.13c-5.85-4.23-12.33-7.38-18.49-11.08-2.3-1.38-3.24-.33-4.43,1.16-1.07-1.4-2.15-2.79-3.22-4.18,3.81-6.45,3.83-6.47,10-2.55,3.76,2.37,7.35,5,11.22,7.22,10.39,5.83,21,11.33,31.31,17.23,3.68,2.09,5.38,1.16,6.26-2.61a17.87,17.87,0,0,1,5.09-6.07c3.83-.08,3.52-4.14,5.54-6.07a22.47,22.47,0,0,0,6.63-12.9c.56-1.65,3-.44,3.59-2.42-1.8-1.35-6.43,1.2-5.61-3.77h0c3.95.73,1.25-2.48,2.12-3.58,1.58-.66,0-2.85,1.67-3.48,3.12-.55,4.14-2.53,4.36-5.55.2-2.85-1.43-3.53-3.41-5-4.56-3.37-10-3.55-15-5-4.31-1.23-7.67-5.34-12.67-4.26l-10-5c2.32-2.26,5.83,0,8.18-2.14,6,3.05,12,6.33,18.16,9.07,4.54,2,9.54,2.88,14,5.25,3.77,2,6.15,4.15,4.7,9.23-1.95,6.81-2.95,13.89-4.35,20.86Z"/><path class="cls-2" d="M73.61,137.7c-8.87,12-14.56,25.65-20.9,39-2.82,5.95-4.61,6.35-10,2.83-5.89-3.82-11.28-8.28-15.26-14.17-3-4.4-7.3-7.22-11.37-10.37-6.33-4.9-6.87-6.65-4.73-14.33l4.32-15.53c.19,4.7,3.82.73,5.33,2.11-1.3,4-3.48,7.65-4.4,11.88-1.54,7-1.1,9.43,4.76,13.53a59.68,59.68,0,0,1,10.45,9.12c3.3,3.7,6.92,7.11,10.41,10.65,2.94,3,4.58,2.7,6.66-1.38C56.07,156.9,64,143.14,72.52,129.75,72.68,132.43,72.6,135.14,73.61,137.7Z"/><path class="cls-2" d="M99.72,19.39l.64-1.16L110.91,3.17c2.31-3.6,5.37-4,8.8-1.84,8.1,5.16,16.32,10.16,24.12,15.75,5.34,3.83,5.36,6.51,1.62,12.06-1.75,2.59-1.68,5.67-2.34,8.55a11.88,11.88,0,0,0-.31,3.46c1.25,14.39-5.42,24-18,30.13-.11-1.3-.69-2.15-2.1-2.22,0-.63,0-1.26,0-1.89a28.33,28.33,0,0,1,2.78-2.12c7.62-4.53,11.7-11,11.59-20.07,0-3.27,1-6.55,1.49-9.83.46-.42,1.24-.79,1.32-1.27.15-1-.84-.8-1.39-.75-1.38.11-3.15,1-2.67-1.73l.29-.19c2.43-.14,5.37.2,3.67-3.86l.18-.14c4.18,1.54,1.62-1.89,2.21-3-6-8.4-14.93-12.65-23.75-17-2.05-1-3.48.84-4.54,2.17-4.4,5.59-8.62,11.31-12.91,17Z"/><path class="cls-3" d="M4.86,51.1A23.81,23.81,0,0,0,6.87,41c-.21-5.39,2.75-9.86,5.32-14.27,3.25-5.59,6.89-11,10.5-16.35C25.92,5.52,27.85,4.92,33,7.91,38.62,11.19,44,15,49.41,18.56c-3.07,3-5.88,1.48-8.68-.49-1.71-4.51-5.17-5.3-9.41-4.43l-.13,0c-.19-1.53.34-3.3-1.85-4s-3.08.86-4.16,2c-3.72,3.79-5.52,8.53-6.45,13.66L13.51,35c-3.5.14-3.07,1.91-2,4.34C13,43,8.68,50.5,4.86,51.1Z"/><path class="cls-2" d="M14.67,75.19c-3.25-2.25-6.46-4.56-9.75-6.75C-.58,64.78-1.18,62.85,1.69,57c.87-1.76,1.92-3.44,2.88-5.16A6.54,6.54,0,0,1,5,58.16c-.62,1.44-1.67,4.48,2,4.74Q20.16,72.23,33.3,81.54A3.7,3.7,0,0,1,34.83,84c-3.43.28-1.22,3.81-2.93,5.08-1.59-2.88-4.38-4.4-7-6.11A51.45,51.45,0,0,0,14.67,75.19Z"/><path class="cls-2" d="M18.55,118.7C21.76,111,28,105.31,32.22,98.23c1.22-2.06,3.18-3.67,3.65-6.18,2.31-1.63,3.84,1,5.85,1.06a4.42,4.42,0,0,1-1.22,3.61c-5.88,6.09-9.9,13.55-14.79,20.37-3.31-.26-3.2,1.84-2.83,4.12v.08C21.15,120.91,18.8,121.55,18.55,118.7Z"/><path class="cls-2" d="M79,42c5,1.92,6.57-2.53,9.27-4.89l4.35,2c-1.36,4-4.6,6.61-6.8,10-1.12,1.71-2.23,1.39-3.69.28-6.21-4.7-12.77-8.94-18.59-14.17,1.91.06,4-.64,5.47,1.3C71.49,39.77,75.09,41.11,79,42Z"/><path class="cls-1" d="M79,42c-3.88-.86-7.48-2.2-10-5.53-1.47-1.94-3.56-1.24-5.47-1.3a33.91,33.91,0,0,1-7.92-5.85c.58-1.35,3.44.43,3.07-2.23l.09-1.16c6.4,3.31,11.62,8.31,17.56,12.27C77.71,39.11,79,40.07,79,42Z"/><path class="cls-4" d="M7,62.9c-3.69-.26-2.64-3.3-2-4.74a6.54,6.54,0,0,0-.44-6.32.55.55,0,0,1,.29-.74C8.68,50.5,13,43,11.48,39.38c-1-2.43-1.47-4.2,2-4.34-.65,5.49,5.1,5.11,7.31,8-1.61.27-3.86-.68-4.15,2.15-1.36.36-3.39-2-3.88-.13C11.18,51.11,5.42,55.85,7,62.9Z"/><path class="cls-1" d="M92.59,39.05l-4.35-2L94.4,28c1.58.42,3.51,2.61,4.28-.88l1,1A69.16,69.16,0,0,1,92.59,39.05Z"/><path class="cls-2" d="M58.75,25.9l-.09,1.16h-2a1.82,1.82,0,0,0-2-2c-.62-1.16-1.41-2.19-2.91-1.74s-1,1.76-1.13,2.78L40.56,19.37c.06-.43.12-.86.17-1.3,2.8,2,5.61,3.51,8.68.49h0c-1,3.71,2,2,3.35,2.47C55,22.42,57.64,23.19,58.75,25.9Z"/><path class="cls-1" d="M122.69,69.06c1.41.07,2,.92,2.1,2.22l-3.21,3.8c-1.38,1.86-5.17,1.26-4.9,4.8l-4.2-3.43c-.11-3,1.76-3.53,4.22-3.37C119.71,73.27,121.82,72.08,122.69,69.06Z"/><path class="cls-3" d="M73.61,137.7c-1-2.56-.93-5.27-1.09-7.95a.65.65,0,0,1,.32-.66c.84-.12,1.65-.27,1.41-1.44v0c2.65-.09,2.39-2,2.32-3.75l0,0c1.07,1.39,2.15,2.78,3.22,4.18A39.21,39.21,0,0,1,73.61,137.7Z"/><path class="cls-1" d="M18.55,118.7c.25,2.85,2.6,2.21,4.33,2.59a3.91,3.91,0,0,1,1.83,2.9c-.05,1.65-1,1.39-2,.92-.15-.74-.29-2-1.22-1.48-1.2.64.06,1.6.28,2.42l-.07,1.1a.81.81,0,0,1-.71.08c-1.51-1.38-5.14,2.59-5.33-2.11l0-.1c1.48-1,.88-2.59,1-4A3.59,3.59,0,0,1,18.55,118.7Z"/><path class="cls-3" d="M98.68,27.07c-.77,3.49-2.7,1.3-4.28.88l5.32-8.56L101,26.33h0C99.94,25.84,98.8,24.88,98.68,27.07Z"/><path class="cls-3" d="M41.72,93.11c-2,0-3.54-2.69-5.85-1.06L33.72,90c.7-1.27,3.19-.7,3-2.9,2,1.77,6,1,6.07,5Z"/><path class="cls-3" d="M116.68,79.88c-.27-3.54,3.52-2.94,4.9-4.8L125.81,78c-2.35,2.14-5.86-.12-8.18,2.14A1.53,1.53,0,0,1,116.68,79.88Z"/><path class="cls-5" d="M36.69,87.06c.22,2.2-2.27,1.63-3,2.9-.72-.07-1.8.58-1.82-.91,1.71-1.27-.5-4.8,2.93-5.08l1.83.29Z"/><path class="cls-3" d="M52.77,21c-1.38-.46-4.37,1.24-3.35-2.47Z"/><path class="cls-2" d="M16.67,121.05c-.12,1.38.48,2.94-1,4A4.9,4.9,0,0,1,16.67,121.05Z"/><path class="cls-6" d="M116.68,79.88a1.53,1.53,0,0,0,.95.25l10,5c6.73,4.67,14.67,6.52,22.13,9.47,7.67,3,7.72,2.91,4.61,10.31-1.66.63-.09,2.82-1.67,3.48a5.72,5.72,0,0,0-2.12,3.58h0l-5.85,8.58c-3.73,5.52-3.73,5.53-9.59,2.17l-11.51-6.65a13.33,13.33,0,0,0-4.81-3.09c-3.07-3-7-4.71-10.5-7A160.22,160.22,0,0,0,85.48,94.26c-3.12-1.35-4.86-.51-7,2C67.05,109.76,59.1,125.54,49,139.9c-2.51,3.56-3.32,2.72-5.62.66C37.23,135,31,129.63,24.71,124.19a3.91,3.91,0,0,0-1.83-2.9v-.08l2.83-4.12c4.89-6.82,8.91-14.28,14.79-20.37a4.42,4.42,0,0,0,1.22-3.61l1-1c4.91-5.23,10-10.26,14.67-15.73,5-6,4.84-6.15-1.53-9.35.55-1.68.55-1.68-1.76-1.85-2.24-2.42-6.15-2.86-8-4.81-5.91-6.27-13.71-9.46-20.45-14.3a10.29,10.29,0,0,0-4.89-3c-2.21-2.87-8-2.49-7.31-8l5.22-9.81c2.28-3.18,4.84-6.2,6.74-9.58,1.5-2.67,3.06-3.46,5.72-2l.13,0c2.73,2.47,6.08,3.95,9.24,5.74l10.09,6.74,4.94,3.18a33.91,33.91,0,0,0,7.92,5.85c5.82,5.23,12.38,9.47,18.59,14.17,1.46,1.11,2.57,1.43,3.69-.28,2.2-3.37,5.44-6,6.8-10a69.16,69.16,0,0,0,7.1-11c.41-.58.82-1.17,1.24-1.75h0c4.29-5.67,8.51-11.39,12.91-17,1.06-1.33,2.49-3.2,4.54-2.17,8.82,4.39,17.79,8.64,23.75,17-.74,1-1.47,2-2.21,3l-.18.14a8.13,8.13,0,0,0-3.67,3.86l-.29.19c-10,8.85-16.92,20.3-25.76,30.13-2.29,2.54-6.59,4.64-6.06,8.07.6,3.77,5.5,4.66,8.5,6.85Zm3.63,14.37c-2.74.65-4.53,2-5.15,4.61-.27,1.13.82,1.3,1.62,1.06C119.4,99.14,120.69,97.43,120.31,94.25Z"/><path class="cls-7" d="M21,127.23a.81.81,0,0,0,.71-.08c7.26,4.46,12.92,10.74,18.89,16.66,5.1,5,6.72,5.1,10.83-1,8.56-12.63,16.8-25.48,25.28-38.17,4.45-6.65,6.09-6.85,13.57-3.75,8.58,3.56,16.23,8.77,24.32,13.17l4.89,3.13c4.86,4.21,10.5,7.21,16.13,10.19,2.37,1.26,3.69,2.63,2.77,5.38-1.33,3.38-3.64,6.47-3,10.41-.88,3.77-2.58,4.7-6.26,2.61-10.35-5.9-20.92-11.4-31.31-17.23-3.87-2.17-7.46-4.85-11.22-7.22-6.21-3.92-6.23-3.9-10,2.55l0,0a4.22,4.22,0,0,0-2.32,3.75s0,0,0,0c-1,0-1.22.68-1.42,1.44a.65.65,0,0,0-.32.66C64,143.14,56.07,156.9,48.86,171c-2.08,4.08-3.72,4.35-6.66,1.38-3.49-3.54-7.11-6.95-10.41-10.65a59.68,59.68,0,0,0-10.45-9.12c-5.86-4.1-6.3-6.53-4.76-13.53C17.5,134.88,19.68,131.24,21,127.23Z"/><path class="cls-4" d="M138.36,132.8c.93-2.75-.39-4.12-2.76-5.38-5.63-3-11.27-6-16.13-10.19l4.18-1.15,11.51,6.65c5.86,3.36,5.86,3.35,9.59-2.17L150.6,112c-.82,5,3.81,2.42,5.61,3.77-.62,2-3,.77-3.59,2.42a6.5,6.5,0,0,0-4.32,3.53c-2.23,4.29-5,8.33-7.49,12.47-.1-1.47-.75-1.86-2-1Z"/><path class="cls-4" d="M154.38,104.93c3.11-7.4,3.06-7.28-4.61-10.31-7.46-3-15.4-4.8-22.13-9.47,5-1.08,8.36,3,12.67,4.26,5,1.42,10.46,1.6,15,5,2,1.47,3.61,2.15,3.41,5C158.52,102.4,157.5,104.38,154.38,104.93Z"/><path class="cls-7" d="M140.81,134.17c2.53-4.14,5.26-8.18,7.49-12.47a6.5,6.5,0,0,1,4.32-3.53,22.47,22.47,0,0,1-6.63,12.9c-2,1.93-1.71,6-5.54,6.07.05-.68.1-1.36.16-2A3.85,3.85,0,0,0,140.81,134.17Z"/><path class="cls-4" d="M140.61,135.11c-.06.67-.11,1.35-.16,2a17.87,17.87,0,0,0-5.09,6.07c-.63-3.94,1.68-7,3-10.41l.42.35C138.68,134.47,139.39,135,140.61,135.11Z"/><path class="cls-4" d="M150.59,112a5.72,5.72,0,0,1,2.12-3.58C151.84,109.51,154.54,112.72,150.59,112Z"/><path class="cls-7" d="M138.54,35.15C138,38.43,137,41.71,137.05,45c.11,9.1-4,15.54-11.59,20.07a28.33,28.33,0,0,0-2.78,2.12c-2.17,1.5-4.37,3-6.52,4.52-2.43,1.74-4.24.06-5.68-1.36s-1.16-2.94.44-4.68a313.71,313.71,0,0,0,23.35-27.87C135.38,36.27,136.25,34.64,138.54,35.15Z"/><path class="cls-4" d="M138.54,35.15c-2.29-.51-3.16,1.12-4.27,2.63a313.71,313.71,0,0,1-23.35,27.87c-1.6,1.74-1.82,3.32-.44,4.68s3.25,3.1,5.68,1.36c2.15-1.54,4.35-3,6.52-4.52,0,.63,0,1.26,0,1.89-.87,3-3,4.21-6,4-2.46-.16-4.33.35-4.22,3.37-3-2.19-7.9-3.08-8.5-6.85-.53-3.43,3.77-5.53,6.06-8.07,8.84-9.83,15.78-21.28,25.76-30.13-.48,2.72,1.29,1.84,2.67,1.73.55-.05,1.54-.26,1.39.75C139.78,34.36,139,34.73,138.54,35.15Z"/><path class="cls-4" d="M136.09,31.21a8.13,8.13,0,0,1,3.67-3.86C141.46,31.41,138.52,31.07,136.09,31.21Z"/><path class="cls-4" d="M139.94,27.21c.74-1,1.47-2,2.21-3C141.56,25.32,144.12,28.75,139.94,27.21Z"/><path class="cls-4" d="M31.19,13.61c-2.66-1.42-4.22-.63-5.72,2-1.9,3.38-4.46,6.4-6.74,9.58.93-5.13,2.73-9.87,6.45-13.66,1.08-1.11,2.05-2.66,4.16-2S31,12.08,31.19,13.61Z"/><path class="cls-4" d="M40.56,19.37c-3.16-1.79-6.51-3.27-9.24-5.74,4.24-.86,7.7-.07,9.41,4.44C40.68,18.51,40.62,18.94,40.56,19.37Z"/><path class="cls-7" d="M54.14,65.17c2.31.17,2.31.17,1.76,1.85-2.45.73-1.5,2.52-.55,3.35,2,1.74,1,2.91-.42,3.89a40.54,40.54,0,0,0-8.45,8.66c-3.1,4-6,4.65-9.82,1.34L34.83,84a3.7,3.7,0,0,0-1.53-2.43Q20.15,72.26,7,62.9c-1.61-7,4.15-11.79,5.76-17.86.49-1.85,2.52.49,3.88.13l8,4.88c2.77,1.68,5.46,3.68,8.19,5.19C38.65,58.44,43,63.63,49,66.38,51,67.33,53.05,68.32,54.14,65.17Z"/><path class="cls-1" d="M25.71,117.09l-2.83,4.12C22.51,118.93,22.4,116.83,25.71,117.09Z"/><path class="cls-3" d="M55.59,29.29l-4.94-3.18c.17-1-.27-2.36,1.13-2.78s2.29.58,2.91,1.74a1.8,1.8,0,0,0,2,2h2C59,29.72,56.17,27.94,55.59,29.29Z"/><path class="cls-2" d="M24.67,50.05l-8-4.88c.29-2.83,2.54-1.88,4.15-2.15a10.29,10.29,0,0,1,4.89,3C26.06,47.57,26.39,49.08,24.67,50.05Z"/><path class="cls-2" d="M100.93,26.34c-.42.58-.83,1.17-1.24,1.75l-1-1C98.8,24.88,99.94,25.84,100.93,26.34Z"/><path class="cls-1" d="M56.68,27.06a1.8,1.8,0,0,1-2-2A1.82,1.82,0,0,1,56.68,27.06Z"/><path class="cls-1" d="M74.26,127.7A4.22,4.22,0,0,1,76.58,124C76.65,125.72,76.91,127.61,74.26,127.7Z"/><path class="cls-1" d="M72.84,129.09c.2-.76.46-1.44,1.42-1.44C74.49,128.82,73.68,129,72.84,129.09Z"/><path class="cls-4" d="M114.58,114.1c-8.09-4.4-15.74-9.61-24.32-13.17-7.48-3.1-9.12-2.9-13.57,3.75C68.21,117.37,60,130.22,51.41,142.85c-4.11,6.06-5.73,6-10.83,1-6-5.92-11.63-12.2-18.89-16.66,0-.37,0-.73.07-1.1.31-.31.63-.62.94-.94,1,.47,2,.73,2-.92C31,129.63,37.23,135,43.4,140.56c2.3,2.06,3.11,2.9,5.62-.66,10.08-14.36,18-30.14,29.44-43.6,2.16-2.55,3.9-3.39,7-2A160.22,160.22,0,0,1,108.34,106c3.54,2.25,7.43,4,10.5,7Z"/><path class="cls-2" d="M22.7,125.11c-.31.32-.63.63-.94.94-.22-.82-1.48-1.78-.28-2.42C22.41,123.14,22.55,124.37,22.7,125.11Z"/><path class="cls-4" d="M36.66,84.26c3.79,3.31,6.72,2.67,9.82-1.34a40.54,40.54,0,0,1,8.45-8.66c1.39-1,2.42-2.15.42-3.89-1-.83-1.9-2.62.55-3.35,6.37,3.2,6.58,3.38,1.53,9.35-4.63,5.47-9.76,10.5-14.67,15.73,0-4.07-4.12-3.27-6.07-5Z"/><path class="cls-4" d="M24.67,50.05c1.72-1,1.39-2.48,1-4,6.74,4.84,14.54,8,20.45,14.3,1.83,2,5.74,2.39,8,4.81C53.05,68.32,51,67.33,49,66.38c-6-2.75-10.31-7.94-16.1-11.14C30.13,53.73,27.44,51.73,24.67,50.05Z"/><path class="cls-2" d="M114.58,114.1l4.26-1.11a13.33,13.33,0,0,1,4.81,3.09l-4.18,1.15Z"/><path class="cls-4" d="M120.31,94.25c.38,3.18-.91,4.89-3.53,5.67-.8.24-1.89.07-1.62-1.06C115.78,96.3,117.57,94.9,120.31,94.25Z"/><path class="cls-1" d="M140.61,135.11c-1.22-.08-1.93-.64-1.82-2,1.27-.84,1.92-.45,2,1A3.85,3.85,0,0,1,140.61,135.11Z"/></g></g></svg>