<svg xmlns="http://www.w3.org/2000/svg" viewBox="0 0 186.3 177.71"><defs><style>.cls-1{fill:#212125;}.cls-2{fill:#241b1a;}.cls-3{fill:#121211;}.cls-4{fill:#e3e7f8;}.cls-5{fill:#bcbde0;}.cls-6{fill:#fdfdfd;}</style></defs><title>Layer 3</title><g id="Layer_2" data-name="Layer 2"><g id="Layer_3" data-name="Layer 3"><path class="cls-1" d="M29,129.17c-5.81,0-11.63-.13-17.44,0-2.24.06-2.92-1.22-3.32-2.88C5.53,115.14,2.82,104,.3,92.81c-1-4.52.71-8.56,3.3-12.17a153,153,0,0,0,12.05-18.9c1-1.91,2.3-2.48,4.28-2.7,11.24-1.27,22.5-2.57,33.82-2.48,3.64,0,4.22-1.26,3.62-4.37-1-5.38-1.93-10.79-2.8-16.2-.84-5.23.15-9.91,4.32-13.58a30.57,30.57,0,0,0,7.75-10.29c2.5-5.49,6.9-8.13,12.72-7.9,10.85.44,21.49.08,32-3.55,5.45-1.9,7.67.26,8.58,6.18,2.21,14.35,1.54,28.9,3,43.29.27,2.72-.24,5.72,2.06,7.94.64,1.05,1.31,1.11,2,.06l7,0c4.1,1.2,8.21,2.7,12-.78a187.88,187.88,0,0,1,27.86-1.24c3.31,0,5.25,1,6.06,4.38,2.68,11,4.62,22.07,6.25,33.23.75,5.13-1,9.29-5,12.82C176,111,172.23,116.83,166.79,121a10.81,10.81,0,0,1-6.25,2.51c-8.12.56-16.2,1.71-24.32,2.18-3.68.21-5,1.29-4.24,5a17.79,17.79,0,0,1-.12,4.42c-1.83.18-1.89,1.51-1.89,2.9s.15,2.73-1.66,3.1c-.94-12.18-4.1-24.06-5-36.26-.3-4,.54-5.71,4.87-5.63,9.27.19,18.54,0,27.81-.07l5.05,0c5,.64,9.93-.07,14.89-.33,3.21-.17,4.25-1.74,4.4-5,.47-10.49-3.37-20.24-4.69-30.41-.34-2.59-2.6-2-4.39-1.78a99.48,99.48,0,0,0-17.43.08c-9.95.5-19.91.88-29.85,1.56-3.36.23-4.65-.84-5.17-4.17a133.84,133.84,0,0,1-1.67-19.36c-.09-9.66-.23-19.32-2.35-28.8-.33-1.5.12-4.21-2.7-3.93C100.3,8.19,88.45,8.44,76.83,10.72c-.6.11-2.2-.19-2,1.73.57,5.5.43,11.1,1.38,16.52,1.44,8.25,3.28,16.42,4.3,24.74.92,7.41.91,7.37-6.6,7.46-16.13.19-32.29.11-48.29,2.75-1.84.3-3.46.29-3.21,3.12.82,9.13,2,18.17,4.63,27,.85,2.89,2.19,3.43,5,3,16.65-2.75,33.44-3.08,50.27-2.65,4,.1,5.29,1.27,5.54,5.35,1,15.61,2.36,31.18,5.43,46.56.92,4.6,2.21,7.69,7.66,5.56l.63.57.24-.86,2.18-.18V155l-5.36,1.13c-6.47,1.35-6.44,1.34-7.77-5.17a310.7,310.7,0,0,1-5.93-47.05c-.17-3.41-1-5-4.71-5.31-14-1.3-27.93-.34-41.86,1.29-4.23.5-9.36,3.84-12.59.51-3-3.13-2.93-8.66-3.7-13.26-1-5.78-1.64-11.62-3.62-17.82-2.39,3-4.17,5.55-6.31,7.78C6,83.53,4.56,91,6.8,99.32c2,7.55,4.18,15.06,6.13,22.63.63,2.48,2.33,1.88,3.92,1.82,13.81-.51,27.64-.8,41.43-1.7,4.8-.31,7.12.51,7.9,5.73a288.42,288.42,0,0,0,9.43,39.8c.83,2.76,2,3.75,4.78,3.68,7.33-.19,14.8-1,22,.08,7.33,1.12,12.17-1.42,16.49-6.57,1,1.38.76,3.38,2.35,4.43-2.75,2.39-5.51,4.76-8.25,7.17a4.3,4.3,0,0,1-3.1,1.32c-11-.35-21.94-.72-32.91-.93-3.36-.06-4.7-1.57-5.67-4.76-4-13.2-8.21-26.35-9.84-40.09-.45-3.78-2-4.06-5.06-3.7a174.63,174.63,0,0,1-26.37,1C29.65,128.45,29.31,128.42,29,129.17Zm145.61-26.28c-13.57.57-27,1-40.39.54-2.32-.07-5.17-.84-6.82.21s.2,4,0,6.06c-.14,1.15-.71,2.78-.17,3.38,1.88,2.11-.7,7.59,4.7,6.81a109.76,109.76,0,0,1,18.9-.77C162.51,119.43,170.07,113.83,174.57,102.89Zm-102.76-87C59.35,23.73,57.69,34.67,62,47.36a18.33,18.33,0,0,1,.38,2c1.82,8.36,1.81,8.17,10.17,7.66,3.56-.21,4.82-1.11,4.49-4.94A345.5,345.5,0,0,0,71.81,15.92Z"/><path class="cls-2" d="M121.19,169.22c-1.59-1.05-1.39-3.05-2.35-4.43l2-3.06c.49.91,1.16,1.5,2.25,1a.87.87,0,0,0,.34-.75c-.23-1-1.16-.84-1.87-1.06l4-6.65L120,154c1.74-1.81-4.31-1.22-1.08-3.48,9.26-.87,9.26-.87,9.4-9.4,1.81-.37,1.66-1.79,1.66-3.1s.06-2.72,1.89-2.9l.3,2c-1.68,2.24-2.39,4.36.71,6C135.09,154.56,129.86,162.66,121.19,169.22Zm5-9.19c.71-.06,1.23-.15,1-.84-.09-.26-.46-.63-.67-.61a3.43,3.43,0,0,0-1.09.53Z"/><path class="cls-3" d="M146,57.32c-3.79,3.48-7.9,2-12,.78Z"/><path class="cls-1" d="M132.87,143.13c-3.1-1.68-2.39-3.8-.71-6C133.93,138.92,133.5,141,132.87,143.13Z"/><path class="cls-3" d="M127,58.14c-.7,1-1.37,1-2-.06Z"/><path class="cls-3" d="M29,129.17c.35-.75.69-.72,1,0Z"/><path class="cls-4" d="M128.31,141.13c-.14,8.53-.14,8.53-9.4,9.4-3,0-6-.58-9,.37l-5.92.45-2.18.18a.64.64,0,0,0-.87.29c-5.45,2.13-6.74-1-7.66-5.56-3.07-15.38-4.48-30.95-5.43-46.56-.25-4.08-1.53-5.25-5.54-5.35C65.47,93.92,48.68,94.25,32,97c-2.8.47-4.14-.07-5-3-2.62-8.83-3.81-17.87-4.63-27-.25-2.83,1.37-2.82,3.21-3.12,16-2.64,32.16-2.56,48.29-2.75,7.51-.09,7.52-.05,6.6-7.46-1-8.32-2.86-16.49-4.3-24.74-.95-5.42-.81-11-1.38-16.52-.2-1.92,1.4-1.62,2-1.73C88.45,8.44,100.3,8.19,112,7c2.82-.28,2.37,2.43,2.7,3.93,2.12,9.48,2.26,19.14,2.35,28.8a133.84,133.84,0,0,0,1.67,19.36c.52,3.33,1.81,4.4,5.17,4.17,9.94-.68,19.9-1.06,29.85-1.56a22.21,22.21,0,0,0,17.43-.08c1.79-.2,4-.81,4.39,1.78,1.32,10.17,5.16,19.92,4.69,30.41-.15,3.3-1.19,4.87-4.4,5-5,.26-9.91,1-14.89.33a3.32,3.32,0,0,0-5.05,0c-9.27,0-18.54.26-27.81.07-4.33-.08-5.17,1.6-4.87,5.63C124.21,117.07,127.37,129,128.31,141.13Z"/><path class="cls-5" d="M120,154l5.55.29-4,6.65-.72.78-2,3.06c-4.32,5.15-9.16,7.69-16.49,6.57-7.16-1.1-14.63-.27-22-.08-2.81.07-4-.92-4.78-3.68a288.42,288.42,0,0,1-9.43-39.8c-.78-5.22-3.1-6-7.9-5.73-13.79.9-27.62,1.19-41.43,1.7-1.59.06-3.29.66-3.92-1.82C11,114.38,8.83,106.87,6.8,99.32,4.56,91,6,83.53,12.13,77.13c2.14-2.23,3.92-4.81,6.31-7.78,2,6.2,2.66,12,3.62,17.82.77,4.6.66,10.13,3.7,13.26,3.23,3.33,8.36,0,12.59-.51,13.93-1.63,27.83-2.59,41.86-1.29,3.67.34,4.54,1.9,4.71,5.31A310.7,310.7,0,0,0,90.85,151c1.33,6.51,1.3,6.52,7.77,5.17L104,155c2.06.09,4.19.65,6-.94Z"/><path class="cls-5" d="M174.57,102.89c-4.5,10.94-12.06,16.54-23.82,16.23a109.76,109.76,0,0,0-18.9.77c-5.4.78-2.82-4.7-4.7-6.81-.54-.6,0-2.23.17-3.38.24-2.11-1.68-5,0-6.06s4.5-.28,6.82-.21C147.59,103.84,161,103.46,174.57,102.89Z"/><path class="cls-5" d="M71.81,15.92A345.5,345.5,0,0,1,77,52c.33,3.83-.93,4.73-4.49,4.94-8.36.51-8.35.7-10.17-7.66a18.33,18.33,0,0,0-.38-2C57.69,34.67,59.35,23.73,71.81,15.92Z"/><path class="cls-6" d="M171.21,61.63a22.21,22.21,0,0,1-17.43.08A99.48,99.48,0,0,1,171.21,61.63Z"/><path class="cls-2" d="M110,154.09c-1.79,1.59-3.92,1-6,.94v-3.68l5.92-.45Z"/><path class="cls-6" d="M156,99.17a3.32,3.32,0,0,1,5.05,0Z"/><path class="cls-2" d="M100.93,151.82a.64.64,0,0,1,.87-.29l-.24.86Z"/><path class="cls-1" d="M110,154.09l-.06-3.19c3-1,6-.4,9-.37-3.23,2.26,2.82,1.67,1.08,3.48Z"/><path class="cls-1" d="M120.8,161.73l.72-.78c.71.22,1.64.08,1.87,1.06a.87.87,0,0,1-.34.75C122,163.23,121.29,162.64,120.8,161.73Z"/><path class="cls-1" d="M126.17,160l-.76-.92a3.43,3.43,0,0,1,1.09-.53c.21,0,.58.35.67.61C127.4,159.88,126.88,160,126.17,160Z"/></g></g></svg>